<svg width="15" height="16" viewBox="0 0 15 16" fill="none" xmlns="http://www.w3.org/2000/svg">
<path d="M7.31373 1.33228C6.10478 1.33228 4.92298 1.72327 3.91778 2.45581C2.91257 3.18835 2.12911 4.22955 1.66647 5.44772C1.20382 6.66589 1.08277 8.00634 1.31863 9.29954C1.55448 10.5928 2.13664 11.7806 2.9915 12.713C3.84636 13.6453 4.93551 14.2803 6.12123 14.5375C7.30695 14.7947 8.53598 14.6627 9.6529 14.1581C10.7698 13.6536 11.7245 12.7991 12.3961 11.7027C13.0678 10.6064 13.4263 9.31748 13.4263 7.99894C13.4263 7.12346 13.2682 6.25656 12.961 5.44772C12.6538 4.63888 12.2036 3.90395 11.636 3.2849C11.0684 2.66584 10.3945 2.17478 9.6529 1.83975C8.91129 1.50471 8.11644 1.33228 7.31373 1.33228ZM7.31373 13.3323C6.34657 13.3323 5.40113 13.0195 4.59697 12.4334C3.7928 11.8474 3.16603 11.0145 2.79592 10.0399C2.4258 9.06538 2.32896 7.99303 2.51765 6.95846C2.70633 5.9239 3.17206 4.97359 3.85595 4.22771C4.53983 3.48183 5.41115 2.97388 6.35973 2.76809C7.30831 2.5623 8.29153 2.66792 9.18507 3.07158C10.0786 3.47525 10.8423 4.15884 11.3797 5.0359C11.917 5.91296 12.2038 6.94411 12.2038 7.99894C12.2038 9.41343 11.6886 10.77 10.7715 11.7702C9.85445 12.7704 8.61065 13.3323 7.31373 13.3323Z" fill="#090324" fill-opacity="0.34"/>
<path d="M7.31243 5.99959C7.65001 5.99959 7.92368 5.70112 7.92368 5.33293C7.92368 4.96474 7.65001 4.66626 7.31243 4.66626C6.97484 4.66626 6.70117 4.96474 6.70117 5.33293C6.70117 5.70112 6.97484 5.99959 7.31243 5.99959Z" fill="#090324" fill-opacity="0.34"/>
<path d="M7.31243 6.66626C7.15031 6.66626 6.99484 6.7365 6.8802 6.86152C6.76557 6.98655 6.70117 7.15612 6.70117 7.33293V10.6663C6.70117 10.8431 6.76557 11.0126 6.8802 11.1377C6.99484 11.2627 7.15031 11.3329 7.31243 11.3329C7.47454 11.3329 7.63002 11.2627 7.74465 11.1377C7.85928 11.0126 7.92368 10.8431 7.92368 10.6663V7.33293C7.92368 7.15612 7.85928 6.98655 7.74465 6.86152C7.63002 6.7365 7.47454 6.66626 7.31243 6.66626Z" fill="#090324" fill-opacity="0.34"/>
</svg>
