<svg width="15" height="15" viewBox="0 0 15 15" fill="none" xmlns="http://www.w3.org/2000/svg">
<path d="M7.31373 1.24951C6.10478 1.24951 4.92298 1.61607 3.91778 2.30283C2.91257 2.98959 2.12911 3.9657 1.66647 5.10774C1.20382 6.24978 1.08277 7.50645 1.31863 8.71883C1.55448 9.93121 2.13664 11.0449 2.9915 11.9189C3.84636 12.793 4.93551 13.3883 6.12123 13.6294C7.30695 13.8706 8.53598 13.7468 9.6529 13.2738C10.7698 12.8007 11.7245 11.9996 12.3961 10.9718C13.0678 9.94402 13.4263 8.73565 13.4263 7.49951C13.4263 6.67875 13.2682 5.86603 12.961 5.10774C12.6538 4.34946 12.2036 3.66046 11.636 3.08009C11.0684 2.49973 10.3945 2.03936 9.6529 1.72526C8.91129 1.41117 8.11644 1.24951 7.31373 1.24951ZM7.31373 12.4995C6.34657 12.4995 5.40113 12.2063 4.59697 11.6569C3.7928 11.1075 3.16603 10.3266 2.79592 9.41293C2.4258 8.4993 2.32896 7.49397 2.51765 6.52406C2.70633 5.55416 3.17206 4.66324 3.85595 3.96398C4.53983 3.26472 5.41115 2.78851 6.35973 2.59559C7.30831 2.40266 8.29153 2.50168 9.18507 2.88011C10.0786 3.25855 10.8423 3.89942 11.3797 4.72166C11.917 5.54391 12.2038 6.51061 12.2038 7.49951C12.2038 8.82559 11.6886 10.0974 10.7715 11.035C9.85445 11.9727 8.61065 12.4995 7.31373 12.4995Z" fill="#090324" fill-opacity="0.34"/>
<path d="M7.31243 5.62512C7.65001 5.62512 7.92368 5.3453 7.92368 5.00012C7.92368 4.65494 7.65001 4.37512 7.31243 4.37512C6.97484 4.37512 6.70117 4.65494 6.70117 5.00012C6.70117 5.3453 6.97484 5.62512 7.31243 5.62512Z" fill="#090324" fill-opacity="0.34"/>
<path d="M7.31243 6.25012C7.15031 6.25012 6.99484 6.31597 6.8802 6.43318C6.76557 6.55039 6.70117 6.70936 6.70117 6.87512V10.0001C6.70117 10.1659 6.76557 10.3249 6.8802 10.4421C6.99484 10.5593 7.15031 10.6251 7.31243 10.6251C7.47454 10.6251 7.63002 10.5593 7.74465 10.4421C7.85928 10.3249 7.92368 10.1659 7.92368 10.0001V6.87512C7.92368 6.70936 7.85928 6.55039 7.74465 6.43318C7.63002 6.31597 7.47454 6.25012 7.31243 6.25012Z" fill="#090324" fill-opacity="0.34"/>
</svg>
